<svg width="20" height="20" viewBox="0 0 20 20" fill="none" xmlns="http://www.w3.org/2000/svg">
<path d="M18.4235 10.1654L18.4233 10.1657C18.3048 10.3545 18.1476 10.5166 17.9618 10.6415L11.6073 14.9083L11.6072 14.9084C11.2558 15.1444 10.8411 15.2707 10.4165 15.2707C9.99196 15.2707 9.5773 15.1444 9.22586 14.9084L9.22581 14.9083L2.87111 10.6414L2.87099 10.6413C2.58115 10.4468 2.36378 10.1636 2.25153 9.83536C2.21775 9.73661 2.19404 9.63538 2.18039 9.53314L8.68338 13.8449L8.68343 13.8449C9.16358 14.1632 9.72268 14.3429 10.2988 14.3644C10.8749 14.3859 11.4459 14.2484 11.9486 13.9668L11.9566 13.9623L11.9644 13.9576L12.1325 13.8552L12.1407 13.8502L12.1486 13.8449L18.6524 9.53263C18.6226 9.75719 18.5446 9.97299 18.4235 10.1654ZM18.653 12.9278C18.6395 13.0305 18.6158 13.1322 18.5819 13.2313C18.4698 13.5595 18.2524 13.8425 17.9625 14.0366L17.962 14.037L11.6073 18.304L11.6072 18.304C11.2558 18.54 10.8411 18.6663 10.4165 18.6663C9.99196 18.6663 9.5773 18.54 9.22586 18.304L9.22581 18.304L2.87111 14.037L2.87099 14.0369C2.58115 13.8424 2.36378 13.5592 2.25153 13.231C2.21775 13.1322 2.19404 13.031 2.18039 12.9288L8.68338 17.2405L8.68343 17.2405C9.16358 17.5588 9.72268 17.7385 10.2988 17.76C10.8749 17.7815 11.4459 17.644 11.9486 17.3624L11.9566 17.3579L11.9644 17.3532L12.1325 17.2508L12.1407 17.2458L12.1486 17.2405L18.653 12.9278ZM11.597 1.68854L11.5971 1.68858L18.2826 6.12165C18.358 6.17167 18.4195 6.23924 18.462 6.31818C18.5045 6.3971 18.5266 6.48505 18.5266 6.57425C18.5266 6.66346 18.5045 6.75141 18.462 6.83033C18.4195 6.90927 18.358 6.97684 18.2826 7.02685L11.597 11.461L11.597 11.461C11.2477 11.6927 10.8369 11.8165 10.4165 11.8165C9.99615 11.8165 9.5854 11.6927 9.23606 11.461L9.23604 11.461L2.55049 7.02685C2.55049 7.02685 2.55049 7.02685 2.55049 7.02685C2.47508 6.97683 2.41353 6.90926 2.37106 6.83033C2.32861 6.75141 2.30648 6.66346 2.30648 6.57425C2.30648 6.48505 2.32861 6.3971 2.37106 6.31818C2.41352 6.23926 2.47505 6.1717 2.55044 6.12169C2.55046 6.12168 2.55048 6.12167 2.55049 6.12165L9.236 1.68858L9.23606 1.68854C9.5854 1.45682 9.99615 1.33301 10.4165 1.33301C10.8369 1.33301 11.2477 1.45682 11.597 1.68854ZM9.85221 2.00578H9.82097L9.70529 2.07224L9.58345 2.14224L9.56953 2.15024L9.55615 2.15912L3.52812 6.15758L2.89998 6.57424L3.5281 6.99091L9.55719 10.9904L9.55738 10.9906C9.78284 11.14 10.0435 11.2279 10.3134 11.2457C10.5833 11.2635 10.8533 11.2107 11.0965 11.0923L11.1104 11.0855L11.1239 11.0779L11.2458 11.0089L11.2612 11.0002L11.2759 10.9904L17.304 6.99089L17.932 6.57416L17.3039 6.15756L11.2749 2.15915C11.0497 2.00976 10.7894 1.92176 10.5198 1.90367C10.292 1.88838 10.0641 1.92344 9.85221 2.00578Z" fill="white" stroke="white"/>
</svg>
