<svg width="24" height="21" viewBox="0 0 24 21" fill="none" xmlns="http://www.w3.org/2000/svg">
<g filter="url(#filter0_d_1847_2322)">
<path d="M21.3562 1.80918C21.2908 1.75448 21.2132 1.7165 21.1298 1.69854C21.0465 1.68057 20.9601 1.68315 20.878 1.70605L15.0749 3.1498L9.26242 0.243554H9.25304L9.19679 0.21543H9.13117C9.13117 0.206055 9.12179 0.206055 9.11242 0.206055H8.87804L2.87804 1.70605C2.7549 1.73387 2.64498 1.80297 2.56653 1.90188C2.48808 2.00079 2.44583 2.12356 2.44679 2.2498V15.7498C2.4478 15.8346 2.46767 15.9182 2.50496 15.9944C2.54226 16.0706 2.59604 16.1376 2.66242 16.1904C2.76038 16.2701 2.88302 16.3132 3.00929 16.3123L3.14992 16.2936L8.94367 14.8498L14.7562 17.7561L14.8218 17.7842H14.8405L14.9062 17.8029H15.1499L21.1499 16.3029C21.2713 16.2733 21.3791 16.2034 21.4557 16.1047C21.5323 16.0059 21.5732 15.8841 21.5718 15.7592V2.2498C21.5729 2.1646 21.5539 2.08033 21.5165 2.00379C21.479 1.92726 21.4241 1.86059 21.3562 1.80918ZM3.57179 2.69043L8.44679 1.47168V13.8092L3.57179 15.0279V2.69043ZM14.4468 16.3404L9.57179 13.9029V1.65918L14.4468 4.09668V16.3404ZM20.4468 15.3092L15.5718 16.5279V4.19043L20.4468 2.97168V15.3092Z" fill="white"/>
</g>
<defs>
<filter id="filter0_d_1847_2322" x="-1.55322" y="0.206055" width="27.125" height="25.5967" filterUnits="userSpaceOnUse" color-interpolation-filters="sRGB">
<feFlood flood-opacity="0" result="BackgroundImageFix"/>
<feColorMatrix in="SourceAlpha" type="matrix" values="0 0 0 0 0 0 0 0 0 0 0 0 0 0 0 0 0 0 127 0" result="hardAlpha"/>
<feOffset dy="4"/>
<feGaussianBlur stdDeviation="2"/>
<feComposite in2="hardAlpha" operator="out"/>
<feColorMatrix type="matrix" values="0 0 0 0 0 0 0 0 0 0 0 0 0 0 0 0 0 0 0.25 0"/>
<feBlend mode="normal" in2="BackgroundImageFix" result="effect1_dropShadow_1847_2322"/>
<feBlend mode="normal" in="SourceGraphic" in2="effect1_dropShadow_1847_2322" result="shape"/>
</filter>
</defs>
</svg>
