<svg width="22" height="22" viewBox="0 0 22 22" fill="none" xmlns="http://www.w3.org/2000/svg">
<path d="M19.2499 11.5696V10.4221L20.6899 9.16207C20.9554 8.92811 21.1296 8.60784 21.1817 8.25787C21.2339 7.9079 21.1606 7.55076 20.9749 7.24957L19.2049 4.24957C19.0734 4.02177 18.8843 3.83256 18.6566 3.70092C18.4288 3.56928 18.1705 3.49984 17.9074 3.49957C17.7444 3.49832 17.5823 3.52366 17.4274 3.57457L15.6049 4.18957C15.2903 3.98048 14.9621 3.79256 14.6224 3.62707L14.2399 1.73707C14.1714 1.39178 13.9835 1.0816 13.7093 0.860849C13.4351 0.640096 13.0919 0.522827 12.7399 0.529572H9.22995C8.87797 0.522827 8.53483 0.640096 8.2606 0.860849C7.98638 1.0816 7.79853 1.39178 7.72995 1.73707L7.34745 3.62707C7.0054 3.79252 6.67467 3.98043 6.35745 4.18957L4.57245 3.54457C4.41592 3.50379 4.25383 3.48859 4.09245 3.49957C3.8294 3.49984 3.57105 3.56928 3.34332 3.70092C3.11558 3.83256 2.92647 4.02177 2.79495 4.24957L1.02495 7.24957C0.849886 7.55031 0.784834 7.90257 0.840932 8.246C0.89703 8.58943 1.07079 8.90267 1.33245 9.13207L2.74995 10.4296V11.5771L1.33245 12.8371C1.0634 13.0681 0.884887 13.3869 0.828594 13.737C0.772302 14.0871 0.841867 14.4459 1.02495 14.7496L2.79495 17.7496C2.92647 17.9774 3.11558 18.1666 3.34332 18.2982C3.57105 18.4299 3.8294 18.4993 4.09245 18.4996C4.25546 18.5008 4.41758 18.4755 4.57245 18.4246L6.39495 17.8096C6.7096 18.0187 7.03783 18.2066 7.37745 18.3721L7.75995 20.2621C7.82853 20.6074 8.01638 20.9175 8.2906 21.1383C8.56483 21.3591 8.90797 21.4763 9.25995 21.4696H12.7999C13.1519 21.4763 13.4951 21.3591 13.7693 21.1383C14.0435 20.9175 14.2314 20.6074 14.2999 20.2621L14.6824 18.3721C15.0245 18.2066 15.3552 18.0187 15.6724 17.8096L17.4874 18.4246C17.6423 18.4755 17.8044 18.5008 17.9674 18.4996C18.2305 18.4993 18.4888 18.4299 18.7166 18.2982C18.9443 18.1666 19.1334 17.9774 19.2649 17.7496L20.9749 14.7496C21.15 14.4488 21.2151 14.0966 21.159 13.7532C21.1029 13.4097 20.9291 13.0965 20.6674 12.8671L19.2499 11.5696ZM17.9074 16.9996L15.3349 16.1296C14.7327 16.6397 14.0445 17.0384 13.3024 17.3071L12.7699 19.9996H9.22995L8.69745 17.3371C7.96126 17.0608 7.27673 16.6627 6.67245 16.1596L4.09245 16.9996L2.32245 13.9996L4.36245 12.1996C4.22377 11.4232 4.22377 10.6284 4.36245 9.85207L2.32245 7.99957L4.09245 4.99957L6.66495 5.86957C7.26715 5.35949 7.9554 4.96076 8.69745 4.69207L9.22995 1.99957H12.7699L13.3024 4.66207C14.0386 4.93839 14.7232 5.33643 15.3274 5.83957L17.9074 4.99957L19.6774 7.99957L17.6374 9.79957C17.7761 10.5759 17.7761 11.3707 17.6374 12.1471L19.6774 13.9996L17.9074 16.9996Z" fill="white"/>
<path d="M11 15.5C10.11 15.5 9.23996 15.2361 8.49994 14.7416C7.75991 14.2471 7.18314 13.5443 6.84254 12.7221C6.50195 11.8998 6.41283 10.995 6.58647 10.1221C6.7601 9.24918 7.18868 8.44736 7.81802 7.81802C8.44736 7.18868 9.24918 6.7601 10.1221 6.58647C10.995 6.41283 11.8998 6.50195 12.7221 6.84254C13.5443 7.18314 14.2471 7.75991 14.7416 8.49994C15.2361 9.23996 15.5 10.11 15.5 11C15.506 11.5926 15.3937 12.1805 15.1697 12.7292C14.9457 13.2779 14.6145 13.7763 14.1954 14.1954C13.7763 14.6145 13.2779 14.9457 12.7292 15.1697C12.1805 15.3937 11.5926 15.506 11 15.5ZM11 8C10.6035 7.99077 10.2093 8.06205 9.84111 8.20954C9.47296 8.35704 9.13855 8.57768 8.85812 8.85812C8.57768 9.13855 8.35704 9.47296 8.20954 9.84111C8.06205 10.2093 7.99077 10.6035 8 11C7.99077 11.3965 8.06205 11.7907 8.20954 12.1589C8.35704 12.527 8.57768 12.8615 8.85812 13.1419C9.13855 13.4223 9.47296 13.643 9.84111 13.7905C10.2093 13.938 10.6035 14.0092 11 14C11.3965 14.0092 11.7907 13.938 12.1589 13.7905C12.527 13.643 12.8615 13.4223 13.1419 13.1419C13.4223 12.8615 13.643 12.527 13.7905 12.1589C13.938 11.7907 14.0092 11.3965 14 11C14.0092 10.6035 13.938 10.2093 13.7905 9.84111C13.643 9.47296 13.4223 9.13855 13.1419 8.85812C12.8615 8.57768 12.527 8.35704 12.1589 8.20954C11.7907 8.06205 11.3965 7.99077 11 8Z" fill="#F1F1F1"/>
</svg>