<svg width="20" height="18" viewBox="0 0 20 18" fill="none" xmlns="http://www.w3.org/2000/svg">
<path d="M19.4388 8.4545L17.1888 3.2045C17.131 3.06956 17.0349 2.95455 16.9124 2.87375C16.7899 2.79295 16.6463 2.74992 16.4995 2.75H14.2495V1.25C14.2495 1.05109 14.1705 0.860322 14.0299 0.71967C13.8892 0.579018 13.6984 0.5 13.4995 0.5H1.49952V2H12.7495V11.417C12.4078 11.6154 12.1087 11.8796 11.8695 12.1942C11.6303 12.5088 11.4558 12.8676 11.356 13.25H6.64302C6.46047 12.543 6.02635 11.9269 5.42201 11.517C4.81768 11.1072 4.08463 10.9319 3.36027 11.0239C2.63591 11.1159 1.96997 11.4689 1.48728 12.0168C1.00459 12.5647 0.738281 13.2698 0.738281 14C0.738281 14.7302 1.00459 15.4353 1.48728 15.9832C1.96997 16.5311 2.63591 16.8841 3.36027 16.9761C4.08463 17.0681 4.81768 16.8928 5.42201 16.483C6.02635 16.0731 6.46047 15.457 6.64302 14.75H11.356C11.5192 15.3937 11.8923 15.9646 12.4164 16.3724C12.9404 16.7802 13.5855 17.0016 14.2495 17.0016C14.9136 17.0016 15.5586 16.7802 16.0827 16.3724C16.6067 15.9646 16.9799 15.3937 17.143 14.75H18.7495C18.9484 14.75 19.1392 14.671 19.2799 14.5303C19.4205 14.3897 19.4995 14.1989 19.4995 14V8.75C19.4996 8.6484 19.4789 8.54785 19.4388 8.4545ZM3.74952 15.5C3.45285 15.5 3.16284 15.412 2.91616 15.2472C2.66949 15.0824 2.47723 14.8481 2.3637 14.574C2.25017 14.2999 2.22046 13.9983 2.27834 13.7074C2.33622 13.4164 2.47908 13.1491 2.68886 12.9393C2.89864 12.7296 3.16591 12.5867 3.45688 12.5288C3.74785 12.4709 4.04945 12.5006 4.32354 12.6142C4.59763 12.7277 4.8319 12.92 4.99672 13.1666C5.16155 13.4133 5.24952 13.7033 5.24952 14C5.24912 14.3977 5.09096 14.779 4.80974 15.0602C4.52852 15.3414 4.14722 15.4996 3.74952 15.5ZM14.2495 4.25H16.0045L17.6125 8H14.2495V4.25ZM14.2495 15.5C13.9528 15.5 13.6628 15.412 13.4162 15.2472C13.1695 15.0824 12.9772 14.8481 12.8637 14.574C12.7502 14.2999 12.7205 13.9983 12.7783 13.7074C12.8362 13.4164 12.9791 13.1491 13.1889 12.9393C13.3986 12.7296 13.6659 12.5867 13.9569 12.5288C14.2479 12.4709 14.5495 12.5006 14.8235 12.6142C15.0976 12.7277 15.3319 12.92 15.4967 13.1666C15.6615 13.4133 15.7495 13.7033 15.7495 14C15.7491 14.3977 15.591 14.779 15.3097 15.0602C15.0285 15.3414 14.6472 15.4996 14.2495 15.5ZM17.9995 13.25H17.143C16.9778 12.6076 16.6041 12.0381 16.0804 11.6309C15.5568 11.2238 14.9128 11.0018 14.2495 11V9.5H17.9995V13.25Z" fill="#E3E4E5"/>
</svg>