<svg width="12" height="9" viewBox="0 0 12 9" fill="none" xmlns="http://www.w3.org/2000/svg">
<path d="M4.00069 6.80082L1.66736 4.46749C1.60634 4.40573 1.53367 4.35669 1.45357 4.32323C1.37346 4.28976 1.28751 4.27253 1.20069 4.27253C1.11387 4.27253 1.02792 4.28976 0.947812 4.32323C0.867705 4.35669 0.795037 4.40573 0.734022 4.46749C0.672262 4.5285 0.623228 4.60117 0.589762 4.68128C0.556295 4.76138 0.539062 4.84734 0.539062 4.93415C0.539062 5.02097 0.556295 5.10692 0.589762 5.18703C0.623228 5.26714 0.672262 5.3398 0.734022 5.40082L3.52736 8.19415C3.78736 8.45415 4.20736 8.45415 4.46736 8.19415L11.534 1.13415C11.5958 1.07314 11.6448 1.00047 11.6783 0.920362C11.7117 0.840255 11.729 0.754302 11.729 0.667486C11.729 0.580669 11.7117 0.494716 11.6783 0.414609C11.6448 0.334502 11.5958 0.261834 11.534 0.200819C11.473 0.139059 11.4003 0.0900247 11.3202 0.0565583C11.2401 0.0230919 11.1542 0.00585938 11.0674 0.00585938C10.9805 0.00585938 10.8946 0.0230919 10.8145 0.0565583C10.7344 0.0900247 10.6617 0.139059 10.6007 0.200819L4.00069 6.80082Z" fill="#599522"/>
</svg>
