<svg width="64" height="64" viewBox="0 0 64 64" fill="none" xmlns="http://www.w3.org/2000/svg">
<circle cx="32" cy="32" r="32" fill="#FFC44D"/>
<circle cx="32" cy="32" r="20" fill="#FF8200"/>
<path d="M36 24C36.5304 24 37.0391 24.2107 37.4142 24.5858C37.7893 24.9609 38 25.4696 38 26V27H39.52C39.8198 27 40.1157 27.0675 40.3859 27.1973C40.6561 27.3271 40.8936 27.516 41.081 27.75L42.561 29.601C42.8451 29.9557 42.9999 30.3966 43 30.851V35C43 35.5304 42.7893 36.0391 42.4142 36.4142C42.0391 36.7893 41.5304 37 41 37H40C40 37.7956 39.6839 38.5587 39.1213 39.1213C38.5587 39.6839 37.7956 40 37 40C36.2044 40 35.4413 39.6839 34.8787 39.1213C34.3161 38.5587 34 37.7956 34 37H31C31 37.394 30.9224 37.7841 30.7716 38.1481C30.6209 38.512 30.3999 38.8427 30.1213 39.1213C29.8427 39.3999 29.512 39.6209 29.1481 39.7716C28.7841 39.9224 28.394 40 28 40C27.606 40 27.2159 39.9224 26.8519 39.7716C26.488 39.6209 26.1573 39.3999 25.8787 39.1213C25.6001 38.8427 25.3791 38.512 25.2284 38.1481C25.0776 37.7841 25 37.394 25 37C24.4696 37 23.9609 36.7893 23.5858 36.4142C23.2107 36.0391 23 35.5304 23 35V26C23 25.4696 23.2107 24.9609 23.5858 24.5858C23.9609 24.2107 24.4696 24 25 24H36ZM28 36C27.7348 36 27.4804 36.1054 27.2929 36.2929C27.1054 36.4804 27 36.7348 27 37C27 37.2652 27.1054 37.5196 27.2929 37.7071C27.4804 37.8946 27.7348 38 28 38C28.2652 38 28.5196 37.8946 28.7071 37.7071C28.8946 37.5196 29 37.2652 29 37C29 36.7348 28.8946 36.4804 28.7071 36.2929C28.5196 36.1054 28.2652 36 28 36ZM37 36C36.7348 36 36.4804 36.1054 36.2929 36.2929C36.1054 36.4804 36 36.7348 36 37C36 37.2652 36.1054 37.5196 36.2929 37.7071C36.4804 37.8946 36.7348 38 37 38C37.2652 38 37.5196 37.8946 37.7071 37.7071C37.8946 37.5196 38 37.2652 38 37C38 36.7348 37.8946 36.4804 37.7071 36.2929C37.5196 36.1054 37.2652 36 37 36ZM39.52 29H38V33H41V30.85L39.52 29Z" fill="white"/>
</svg>
