<svg width="32" height="32" viewBox="0 0 32 32" fill="none" xmlns="http://www.w3.org/2000/svg">
<circle cx="16" cy="16" r="16" fill="#2F2F2F"/>
<path d="M20 8C20.5304 8 21.0391 8.21071 21.4142 8.58579C21.7893 8.96086 22 9.46957 22 10V11H23.52C23.8198 11 24.1157 11.0675 24.3859 11.1973C24.6561 11.3271 24.8936 11.516 25.081 11.75L26.561 13.601C26.8451 13.9557 26.9999 14.3966 27 14.851V19C27 19.5304 26.7893 20.0391 26.4142 20.4142C26.0391 20.7893 25.5304 21 25 21H24C24 21.7956 23.6839 22.5587 23.1213 23.1213C22.5587 23.6839 21.7956 24 21 24C20.2044 24 19.4413 23.6839 18.8787 23.1213C18.3161 22.5587 18 21.7956 18 21H15C15 21.394 14.9224 21.7841 14.7716 22.1481C14.6209 22.512 14.3999 22.8427 14.1213 23.1213C13.8427 23.3999 13.512 23.6209 13.1481 23.7716C12.7841 23.9224 12.394 24 12 24C11.606 24 11.2159 23.9224 10.8519 23.7716C10.488 23.6209 10.1573 23.3999 9.87868 23.1213C9.6001 22.8427 9.37913 22.512 9.22836 22.1481C9.0776 21.7841 9 21.394 9 21C8.46957 21 7.96086 20.7893 7.58579 20.4142C7.21071 20.0391 7 19.5304 7 19V10C7 9.46957 7.21071 8.96086 7.58579 8.58579C7.96086 8.21071 8.46957 8 9 8H20ZM12 20C11.7348 20 11.4804 20.1054 11.2929 20.2929C11.1054 20.4804 11 20.7348 11 21C11 21.2652 11.1054 21.5196 11.2929 21.7071C11.4804 21.8946 11.7348 22 12 22C12.2652 22 12.5196 21.8946 12.7071 21.7071C12.8946 21.5196 13 21.2652 13 21C13 20.7348 12.8946 20.4804 12.7071 20.2929C12.5196 20.1054 12.2652 20 12 20ZM21 20C20.7348 20 20.4804 20.1054 20.2929 20.2929C20.1054 20.4804 20 20.7348 20 21C20 21.2652 20.1054 21.5196 20.2929 21.7071C20.4804 21.8946 20.7348 22 21 22C21.2652 22 21.5196 21.8946 21.7071 21.7071C21.8946 21.5196 22 21.2652 22 21C22 20.7348 21.8946 20.4804 21.7071 20.2929C21.5196 20.1054 21.2652 20 21 20ZM23.52 13H22V17H25V14.85L23.52 13Z" fill="white"/>
</svg>
